# xmcd
#
# Track frame offsets: 
#        150
#        15519
#        31278
#        53635
#        80612
#        99235
#        118595
#        134347
#        148388
#        166841
#        192682
#        210333
#
# Disc length: 3276 seconds
#
# Revision: 1
# Processed by: cddbd v1.5.2PL0 Copyright (c) Steve Scherf et al.
# Submitted via: ExactAudioCopyFreeDBPlugin 1.0
#
DISCID=a00cca0c
DTITLE=Zoe Muth and the Lost High Rollers  - Zoe Muth and the Lost Hig
DTITLE=h Rollers 
DYEAR=2009
DGENRE=Bluegrass
TTITLE0=You Only Believe Me When I'm Lying
TTITLE1=Hey Little Darlin'
TTITLE2=I Used to Call My Heart a Home
TTITLE3=The Last Bus
TTITLE4=Such True Love
TTITLE5=Middle Of Nowhere
TTITLE6=Not You
TTITLE7=The Running Kind
TTITLE8=Hard Luck Love
TTITLE9=My Old Friend
TTITLE10=Wasting My Time
TTITLE11=Never Be Fooled Again
EXTD=YEAR: 2009
EXTT0=
EXTT1=
EXTT2=
EXTT3=
EXTT4=
EXTT5=
EXTT6=
EXTT7=
EXTT8=
EXTT9=
EXTT10=
EXTT11=
PLAYORDER=
